<svg width="255" height="41" viewBox="0 0 255 41" fill="none" xmlns="http://www.w3.org/2000/svg">
<g opacity="0.4">
<path d="M234.853 22.8015C234.165 17.4482 235.295 11.8984 237.996 7.23263C238.733 5.95569 239.617 4.72785 240.845 3.94204C242.072 3.15622 243.742 2.86154 245.019 3.59824C246.64 4.48228 247.18 6.64326 246.836 8.50956C246.493 10.3268 245.461 11.9475 244.626 13.6174C244.626 13.6174 252.828 7.96932 254.203 13.6665C256.512 22.998 234.853 22.8015 234.853 22.8015Z" fill="#A6B695"/>
<path d="M159.497 25.3806C157.385 21.648 156.55 17.277 157.09 13.0532C157.238 11.9236 157.532 10.7449 158.171 9.81174C158.809 8.87858 159.939 8.14188 161.118 8.28922C162.591 8.43656 163.623 9.86085 163.917 11.3343C164.212 12.7585 163.966 14.281 163.819 15.7544C163.819 15.7544 168.092 9.12416 170.842 12.9059C175.361 18.9959 159.497 25.3806 159.497 25.3806Z" fill="#A6B695"/>
<path d="M217.81 11.8493C216.583 9.39365 216.141 6.59419 216.632 3.89296C216.779 3.15626 216.975 2.41957 217.418 1.83021C217.86 1.24085 218.596 0.798819 219.333 0.946159C220.266 1.0935 220.905 2.02665 221.052 2.95981C221.199 3.89296 221.003 4.82612 220.855 5.75927C220.855 5.75927 223.753 1.63374 225.423 4.13852C228.173 8.21492 217.81 11.8493 217.81 11.8493Z" fill="white"/>
<path d="M72.386 36.9954C69.4392 38.7143 65.903 39.4019 62.5142 38.9599C61.5811 38.8617 60.6479 38.6161 59.9112 38.125C59.1254 37.5847 58.5852 36.7007 58.6834 35.7675C58.7816 34.5888 59.9603 33.7539 61.0899 33.5083C62.2687 33.2628 63.4474 33.4592 64.6261 33.5574C64.6261 33.5574 59.3219 30.1686 62.3178 27.9585C67.2291 24.275 72.386 36.9954 72.386 36.9954Z" fill="#A6B695"/>
<path d="M49.7418 25.3041C45.3216 25.697 40.8032 24.5674 37.0215 22.2099C35.9901 21.5715 35.0078 20.7857 34.4185 19.7543C33.8291 18.7229 33.6327 17.3477 34.2711 16.3164C35.0569 14.9903 36.8741 14.6465 38.3475 14.9903C39.8209 15.3341 41.147 16.2181 42.4731 17.004C42.4731 17.004 38.0529 10.079 42.8168 9.14582C50.6259 7.52508 49.7418 25.3041 49.7418 25.3041Z" fill="white"/>
<path d="M139.769 40.7771C137.265 39.6475 135.153 37.7321 133.827 35.3255C133.483 34.687 133.139 33.9504 133.139 33.2137C133.139 32.477 133.434 31.6911 134.072 31.2982C134.907 30.8071 135.988 31.1509 136.675 31.7894C137.363 32.4278 137.805 33.3119 138.296 34.0977C138.296 34.0977 138.001 29.039 140.85 29.9722C145.565 31.4456 139.769 40.7771 139.769 40.7771Z" fill="white"/>
<path d="M82.8021 22.4385C78.6275 20.1302 75.2387 16.4467 73.2742 12.1247C72.7339 10.946 72.341 9.66905 72.3901 8.3921C72.4392 7.11516 73.1268 5.7891 74.3055 5.19974C75.7789 4.51215 77.6453 5.24885 78.7749 6.42757C79.9045 7.60629 80.5429 9.17791 81.2796 10.6513C81.2796 10.6513 81.4761 1.86004 86.2892 3.82457C94.1964 7.06605 82.8021 22.4385 82.8021 22.4385Z" fill="white"/>
<path d="M113.573 27.2891C110.528 25.6193 108.023 22.9181 106.599 19.7257C106.206 18.8417 105.911 17.9576 105.96 16.9753C106.01 16.0422 106.501 15.0599 107.336 14.667C108.416 14.1268 109.791 14.667 110.577 15.5511C111.412 16.4351 111.854 17.5647 112.394 18.6452C112.394 18.6452 112.542 12.2114 116.078 13.6356C121.873 16.0422 113.573 27.2891 113.573 27.2891Z" fill="white"/>
<path d="M196.63 18.0591C194.812 15.0632 194.027 11.4779 194.419 7.99084C194.518 7.05769 194.714 6.07542 195.254 5.28961C195.795 4.5038 196.679 3.91444 197.612 3.96355C198.791 4.06178 199.724 5.19139 199.969 6.3701C200.264 7.54882 200.067 8.77665 200.018 9.95537C200.018 9.95537 203.358 4.45468 205.716 7.45059C209.497 12.5093 196.63 18.0591 196.63 18.0591Z" fill="#A6B695"/>
<path d="M126.568 12.9883C125.34 10.5327 124.898 7.73322 125.389 5.03199C125.536 4.29529 125.733 3.5586 126.175 2.96924C126.617 2.37988 127.353 1.93786 128.09 2.0852C129.023 2.23254 129.662 3.16569 129.809 4.09884C129.956 5.03199 129.76 5.96515 129.613 6.8983C129.613 6.8983 132.51 2.77278 134.18 5.27756C136.93 9.30485 126.568 12.9883 126.568 12.9883Z" fill="#A6B695"/>
<path d="M200.166 39.669C198.938 37.2133 198.496 34.4139 198.987 31.7127C199.134 30.976 199.331 30.2393 199.773 29.6499C200.215 29.0605 200.951 28.6185 201.688 28.7659C202.621 28.9132 203.26 29.8464 203.407 30.7795C203.554 31.7127 203.358 32.6458 203.211 33.579C203.211 33.579 206.108 29.4534 207.778 31.9582C210.479 36.0346 200.166 39.669 200.166 39.669Z" fill="white"/>
<path d="M16.1382 21.5953C18.643 17.4698 19.7235 12.5093 19.2324 7.74534C19.085 6.46839 18.8395 5.14233 18.1028 4.01273C17.3661 2.88312 16.1382 2.09731 14.8122 2.19554C13.1423 2.34288 11.9145 3.9145 11.5216 5.53524C11.1287 7.15598 11.3743 8.82583 11.4725 10.4957C11.4725 10.4957 6.85584 2.88312 3.61436 7.05775C-1.64076 13.9336 16.1382 21.5953 16.1382 21.5953Z" fill="#A6B695"/>
<path d="M10.2447 35.347C10.5885 32.6458 10.0482 29.7972 8.67303 27.4398C8.28013 26.8013 7.88722 26.1628 7.24875 25.7699C6.61028 25.377 5.77535 25.2297 5.13688 25.5734C4.30195 26.0155 4.00727 27.1451 4.20373 28.0291C4.40018 28.9623 4.89131 29.7972 5.33333 30.6321C5.33333 30.6321 1.20782 27.7344 0.471117 30.6321C-0.756715 35.4452 10.2447 35.347 10.2447 35.347Z" fill="white"/>
</g>
</svg>
